<?xml version="1.0" encoding="UTF-8"?><svg id="Capa_2" xmlns="http://www.w3.org/2000/svg" viewBox="0 0 1126.21 628.35"><defs><style>.cls-1{fill:#fff;}</style></defs><g id="Layer_1"><g><path class="cls-1" d="M860.26,468.63c-82.98,0-269.65,107.2-326.42,50.43-3.76-3.76-6.1-7.84-6.7-11.98-.14-.98-1.25-1.48-2.08-.95-25.54,16.33-26.16,60.83,35.66,60.83,96.55,0,289.34-93.25,332.17-53.93,.37,.34,.96,.31,1.29-.07,10.3-11.69,7.9-44.34-33.93-44.34Z"/><path class="cls-1" d="M326.29,335.05c94.02,0,137.11-83.19,126.96-142.02,9.86-12.14,19.04-26.34,25.26-40.9,17.7,7.31,39.82-4.57,36.84,2.61-7.95,15.34-22.22,30.25-26.4,56.73-3.16,19.9,8.27,34.48,24.92,34.48,15.32,0,32.91-16.4,43.11-27.82,7.9,23.51,35.59,30.48,67.1-13.85,6.42,24.23,32.73,34.06,63.97-6.09,8.12,21.61,34.29,28.88,65.26-13.13,5.29,20.13,21.57,24.21,32.32,16.59v-.02c3.81-37.38,22.46-74.89,33.88-80.24,1.05-.49,2.19,.51,1.84,1.62-3.86,12.67-19.75,102.46,45.37,102.46,68.73,0,103.8-108.62,52.32-160.1-45.53-45.53-112.5-39.45-179.97-23.08-.16,.04-.29,.16-.34,.31-.05,.16-.02,.33,.09,.45,5.74,6.82,7.59,15.72,5.65,23.82-.15,.62,.42,1.17,1.03,1,62.04-16.54,117-23.79,152.87,12.07,39.31,39.3,15.92,122.65-31.29,122.65-38.32,0-10.52-98.39-10.52-115.53,0-8.44-3.53-13.84-14.21-13.84-19.62,0-39.5,28.47-48.97,45.7,1.45-6.79,2.44-12.81,2.44-17.48,0-17.6-20.26-20.75-30.38-10.61,6.39,12.79-8.19,40.9-12.56,67.62-4.07,5.79-18.07,26.8-27.35,26.8-23.1,0,4.8-52.33,3.83-74.56,0-17.6-20.26-20.75-30.39-10.61,6.97,13.93-10.97,46.07-13.45,74.77-4.47,6.16-15.2,20.29-22.76,20.29-23.11,0,4.78-52.33,3.83-74.56,0-17.6-20.26-20.75-30.39-10.61,6.4,12.79-8.19,40.93-12.56,67.67-5.06,7.5-12.28,17.73-19.07,23.77-11.45,10.2-20.3,3.32-20.3-9.15,0-20.5,26.29-58.44,38.18-46.55,19.46-19.46-8.19-47.78-34.93-21.04-16.14,16.15-31.12,47.2-32.77,73.05-4.8,5.48-16.06,17.93-23.16,17.93-23.11,0,11.09-52.35,12.81-74.6,4.39-36.35-56.73,9.56-69.31-31.04-.08-.27-.3-.49-.57-.57-1.82-.56-14.65,12.06-10.28,27.29-4.52,11.49-11.17,22.74-18.56,32.91-6.94-13.56-16.22-21.71-27.93-27.55,19.95-13.14,46.38-29.04,46.38-65.35,0-112.1-189.91-91.1-189.91-2.9,0,34.48,28.97,45.55,43.37,28.11,.43-.52,.44-1.28,.01-1.81-11.54-14.37,.5-72.27,64.59-72.27,35.27,0,49.69,24.19,49.69,45.58,0,48.46-63.98,33.51-63.98,75.29,0,17,15.55,28.57,28.57,22.06,9.81,7.9,16.2,18.71,18.7,31.69-14.08,11.71-30.53,21.41-48.21,25.23,5.45-20.33,2.51-54.25-24.07-74.18,22.29-32.08,49-60.49,26.27-83.22-7.03-7-16.98-7.46-25.92-3.29-.64,.3-.95,1.03-.71,1.7,7.96,22.18-9.75,48.12-27.08,72.73-4.67-.91-9.52-1.4-14.49-1.4-118.66,0-128.18,195.03,25.33,195.03Zm-29.14-166.22c-4.78,8.22-9.81,18.48-9.81,27.99,0,24.11,17.26,26.94,32.08,20.5-1.84-13.31,2.5-27.23,8.53-39.34,13.27,16.32,7.87,48.68-11.79,61.16-.89,10.37,8.1,16.92,18.93,16.92,29.05,0,56.2-10.25,79.81-26.92-7.14,36.75-40.95,73.65-91.86,73.65-101.61,0-98.11-124.49-25.89-133.96Z"/><path class="cls-1" d="M545.61,111.45c49.64,0,102.46-15.35,152.82-30.14,.6-.18,.79-.94,.35-1.38-6.44-6.37-9.05-15.16-7.77-23.52,.09-.59-.46-1.07-1.03-.91-19.42,5.54-176.77,57.95-184.28-4.03-.1-.81-1-1.25-1.7-.82-31.51,19.25-11.05,60.81,41.62,60.81Z"/><path class="cls-1" d="M121.79,524.59c-23.11,0,4.79-52.35,3.82-74.59,0-17.59-20.26-20.73-30.39-10.61,7.48,14.95-13.75,50.89-13.75,81.03,0,35.52,31.61,53.58,68.09,3.92,5.28,20.14,21.55,24.26,32.33,16.61,0,0,0,0,0,0,3.25-29.88,34.31-81.27,40.86-81.27,7.23,0-7.48,21.69-7.48,47.49,0,38.58,50.29,29.53,50.74-8.06,.01-.99-1.24-1.43-1.85-.66-7.76,9.8-20.14,7.18-20.14-3.03,0-19.36,14.43-44.32,14.43-62.75,0-13.02-9.65-18.09-18.09-18.09-16.31,0-41.59,33.55-55.57,64.17,3.63-14.98,7.29-28.97,7.29-37.99,0-17.6-20.26-20.74-30.39-10.61,6.39,12.78-8.18,40.89-12.55,67.61-5.23,7.63-18.51,26.82-27.36,26.82Z"/><path class="cls-1" d="M533.94,469.41c29.96,0,54.06-45.47,56.96-84.93,4.71-1.94,9.01-4.3,13.28-7.11v-.02c5-3.3,9.55-7.13,13.72-11.23-8.49,33.19-16.48,67.27-16.48,93.53,0,42.83,28.53,63.61,53.3,38.85-45.56-20.93,1.15-143.88,11.45-195.78,3.66-.93,7.33-1.89,10.98-2.87,.92-.24,1.26-1.37,.64-2.09-5.43-6.26-7.56-14.44-6.32-22.13,.13-.83-.53-1.65-1.76-1.27,.89-39.15-22.98-49.02-43-28.29-.58,.6-.35,1.59,.42,1.89,4.74,1.82,7.62,6.63,9.14,11.81,2.22,7.61,1.45,15.54,.48,23.44-54.91,11.78-86.78-10.64-88.84-26.64-.1-.75-.94-1.16-1.59-.77-31.86,19.22-17.5,60.89,35.24,60.89,14.92,0,32.09-2.36,50.17-6-5.62,25.18-22.56,44.26-41.53,53.09-3.39-21.17-14.87-35.21-36.04-35.21-38.79,0-31.26,64.04,12.7,61.39-1.7,18.89-8.49,48.95-26.8,48.95-15.92,0-19.18-39.16,1.81-45.24-8.32-26.04-44.5-9.41-44.5,27.85,0,27.49,15.26,47.9,36.56,47.9Zm23.48-113.49c5.45,0,7.78,8.44,8.69,13.78-19.13,1.03-17.84-13.78-8.69-13.78Z"/><path class="cls-1" d="M726.97,286.07c29.51-8.18,55.33-14.74,71.74-14.74,10.98,0,26.63,2.26,34.92,9.99,.29,.27,.76,.26,1.03-.04,10.47-11.56,8.22-44.49-33.79-44.49-18.09,0-49.42,10.35-82.7,21.62-.95,.32-1.23,1.53-.52,2.23,6.32,6.29,9.14,15.25,7.63,23.9-.17,.97,.73,1.8,1.69,1.53Z"/><path class="cls-1" d="M1044.68,244.81c-66.32,0-78.41,63.57-43.29,71.06,.51,.11,1.02-.24,1.09-.76,2.48-17.07,23.81-34.86,46.18-34.86,28.06,0,44.03,33.57,44.03,71.42,0,140.34-170.16,148.51-170.16,13.84,0-33.53,28.2-77.88-3.13-77.88-19.61,0-39.48,28.47-48.98,45.71,1.45-6.8,2.45-12.84,2.45-17.51,0-17.6-20.26-20.74-30.39-10.61-7.17,9.57-18.19,18.67-29.9,23.73-2.68-20.49-14.61-35.59-36.09-35.59-38.69,0-31.37,64.01,12.71,61.39-1.42,22.54-10.04,49.71-26.81,49.71-22.02,0-15.37-38.94,.72-45.6,.61-.25,.91-.94,.68-1.57-9.57-25.79-49.19-5.85-43.51,38.06-4.53,6.23-15.35,20.67-23.05,20.67-23.1,0,4.78-52.35,3.81-74.58,0-17.21-19.36-20.57-29.69-11.26-.41,.37-.54,.95-.33,1.46,6.39,15.4-14.11,50.59-14.11,80.23,0,36.39,32.61,53.44,69.15,2.48,6.4,12.22,17.16,19.86,30.19,19.86,30.05,0,54.15-45.68,56.95-85.03,9.72-4.09,19.39-10.52,28.14-19.47-4.4,16.79-12.62,37.77-12.62,56.53,0,29.53,20.2,39.51,33.94,29.78h.02c.83-8.16,2.36-16.32,4.37-24.15,12.43-48.4,33.63-61.96,31.35-54.49-23.56,77.23,21.6,152.55,105.64,152.55,135.61,0,171.22-245.12,40.64-245.12Zm-264.93,75.91c.94,0,1.81,.25,2.61,.73v.02c1.54,.96,3.36,3.59,3.36,4.01,1.31,2.53,2.24,6.2,2.72,9.03-19.15,1.03-17.84-13.78-8.69-13.78Z"/><path class="cls-1" d="M467,517.06c0-69.45,41.96-152.41,41.96-190.03s-34.48-45.58-51.73-17.72c1.82,48.44-48.83,151.56-65.83,151.56-23.8,0,20.99-77.76-3.62-102.37-7.48-7.48-16.5-9.78-25.8-9.78-1.43,0-99.5,27.6-102.77-15.07-.04-.48-.32-.9-.74-1.11-.42-.22-.93-.2-1.34,.06-31.78,19.71-11.03,58.69,30.41,58.69,24.87,0,50.01-14.71,64.74-13.41-5.68,37.82-18.66,72.61-37.62,103.26h0c-48.05,77.76-129.11,120.8-191.76,120.8-130.15,0-113.66-187.04-19.87-201.88,7.9,19.94,37.71,14.3,37.71-7.19,0-10.79-7.18-19.54-19.54-19.54-158.66,0-164.48,255.02,0,255.02,99.67,0,179.22-60.02,224.6-145.38-1.19,21.58,3.79,37.95,23.9,37.95,29.56,0,64.01-64.71,77.06-91.2-7.65,30.77-14.97,62.69-14.97,91.2,0,92.78,51.22,92.61,64.31,56.39,.09-.24,.07-.5-.05-.72-.93-1.82-29.05-2.73-29.05-59.53Z"/><circle class="cls-1" cx="717.95" cy="60.57" r="19.55" transform="translate(167.45 525.41) rotate(-45)"/><circle class="cls-1" cx="698.4" cy="279.93" r="19.55" transform="translate(6.62 575.84) rotate(-45)"/><path class="cls-1" d="M914.21,233.4c-7.65,18.24,6.17,38.15,25.37,38.15,24.53,0,36.78-29.64,19.73-46.86-13.14-13.51-37.12-10.3-45.1,8.71Zm41.96,27.16c-12.14,11.87-31.86,7.67-38.22-7.7-6.13-14.79,4.63-32.27,21.67-32.27,21.26,0,31.14,25.87,16.55,39.97Z"/><path class="cls-1" d="M928.37,258.91h6.62v-12.91h4.81l6.12,12.91h7.41l-6.88-13.99c8.31-1.77,8.69-11.49,3.57-14.77-4.08-2.61-9.32-2.12-21.64-2.12v30.87Zm6.62-26.71c5.27,0,11.53-.64,11.53,4.99s-6.13,4.72-11.53,4.72v-9.71Z"/></g></g></svg>